<svg width="35" height="35" viewBox="0 0 35 35" fill="none" xmlns="http://www.w3.org/2000/svg">
<path d="M8.53404 6.41049C7.82955 6.55437 7.34109 6.77237 6.82916 7.17349C6.27965 7.59641 5.84755 8.20681 5.63151 8.8521L5.5 9.2445V14.8471V20.4497L5.63151 20.8421C6.00724 21.9714 6.96066 22.8564 8.1771 23.2053L8.5998 23.3273H17.5H26.4002L26.8229 23.2053C28.3775 22.7561 29.4765 21.4438 29.4953 20.0094C29.5 19.6039 29.4906 19.5603 29.3731 19.3946C29.1806 19.1243 28.9505 19.0109 28.5841 19.0109C28.0158 19.0109 27.7246 19.2856 27.6448 19.9004C27.5321 20.7331 27.1094 21.2607 26.3579 21.5049C26.1325 21.579 25.6722 21.5833 17.5 21.5833C9.32779 21.5833 8.86751 21.579 8.64207 21.5049C8.11135 21.3348 7.69804 20.9686 7.48669 20.4846L7.37867 20.2317V14.8471V9.4625L7.48669 9.20962C7.69804 8.72566 8.11135 8.35942 8.64207 8.18937C8.86751 8.11525 9.32779 8.11089 17.5 8.11089C25.6722 8.11089 26.1325 8.11525 26.3579 8.18937C26.8886 8.35942 27.3019 8.72566 27.5133 9.20962L27.6213 9.4625L27.6448 12.606L27.6683 15.7453L27.7951 15.924C27.9876 16.1944 28.2178 16.3077 28.5841 16.3077C28.9505 16.3077 29.1806 16.1944 29.3731 15.924L29.5 15.7453V12.4971V9.2445L29.3684 8.8521C28.9927 7.72285 28.0393 6.83777 26.8229 6.48897L26.4002 6.36689L17.6174 6.35817C10.2577 6.35381 8.78767 6.36253 8.53404 6.41049Z" fill="#D3E0F0"/>
<path d="M15.5602 11.0494C15.0482 11.2064 14.6772 11.5072 14.433 11.9694L14.2827 12.2528V14.847V17.4412L14.433 17.7246C14.6256 18.0865 14.9543 18.3917 15.3394 18.5661C15.6119 18.6882 15.6917 18.7012 16.0674 18.7056C16.3023 18.7056 16.5653 18.6794 16.6592 18.6489C16.7531 18.6184 17.8099 18.069 19.0076 17.4237C20.4823 16.6302 21.2572 16.1899 21.4122 16.0547C21.5484 15.9326 21.694 15.7364 21.788 15.5577C21.9242 15.2873 21.9383 15.2219 21.9383 14.847C21.9383 14.472 21.9242 14.4066 21.788 14.1363C21.694 13.9575 21.5484 13.7613 21.4122 13.6392C21.2619 13.5084 20.5152 13.0768 19.1672 12.3531C18.0588 11.7557 17.0162 11.2064 16.8518 11.1322C16.4619 10.9578 15.9594 10.9273 15.5602 11.0494ZM18.1011 13.8006C19.139 14.3587 19.9891 14.8295 19.9891 14.847C19.9891 14.8688 16.6639 16.6825 16.1755 16.9267C16.152 16.9354 16.1379 16.0024 16.1379 14.847C16.1379 13.6916 16.152 12.7585 16.1755 12.7673C16.1942 12.776 17.0584 13.2425 18.1011 13.8006Z" fill="#D3E0F0"/>
<path d="M11.3755 25.224C11.0609 25.2981 10.6475 25.5335 10.4221 25.7646L10.206 25.987L8.15831 26.0088L6.11057 26.0306L5.93209 26.1352C5.83346 26.1919 5.69726 26.3183 5.62681 26.4142C5.51879 26.5625 5.5 26.641 5.5 26.8808C5.5 27.1205 5.51879 27.199 5.62681 27.3473C5.69726 27.4432 5.83346 27.5697 5.93209 27.6263L6.11057 27.731L8.13953 27.744L10.1685 27.7571L10.2671 27.901C10.4174 28.1277 10.718 28.3588 11.0609 28.5114C11.338 28.6335 11.4131 28.6466 11.7935 28.6422C12.1176 28.6422 12.282 28.6161 12.4887 28.5419C13.2213 28.276 13.6722 27.6612 13.6722 26.9244C13.6722 25.9739 12.9207 25.2501 11.8875 25.1978C11.709 25.1891 11.4789 25.2022 11.3755 25.224Z" fill="#D3E0F0"/>
<path d="M16.1942 26.0567C15.9735 26.1178 15.6823 26.4012 15.6165 26.6279C15.5085 27.0159 15.6729 27.4214 16.0298 27.6263L16.2083 27.731H22.5488H28.8893L29.0678 27.6263C29.1664 27.5696 29.3026 27.4432 29.3731 27.3473C29.4811 27.1991 29.4999 27.1206 29.4999 26.8807C29.4999 26.6409 29.4811 26.5625 29.3731 26.4142C29.3026 26.3183 29.1664 26.1919 29.0678 26.1352L28.8893 26.0306L22.6192 26.0218C18.7492 26.0175 16.2881 26.0306 16.1942 26.0567Z" fill="#D3E0F0"/>
</svg>
